<?xml version="1.0" encoding="UTF-8" standalone="no"?>
<!DOCTYPE svg PUBLIC "-//W3C//DTD SVG 1.1//EN" "http://www.w3.org/Graphics/SVG/1.1/DTD/svg11.dtd">
<svg width="100%" height="100%" viewBox="0 0 265 304" version="1.1" xmlns="http://www.w3.org/2000/svg" xmlns:xlink="http://www.w3.org/1999/xlink" xml:space="preserve" xmlns:serif="http://www.serif.com/" style="fill-rule:evenodd;clip-rule:evenodd;stroke-linejoin:round;stroke-miterlimit:1.41421;">
    <g>
        <rect x="9.653" y="263.558" width="158.241" height="31.565" style="fill:#fbfbfb;"/>
        <path d="M176.82,255.38l0,48.172l-176.82,0l0,-8.429l167.894,0l0,-31.565l-167.894,0l0,-8.178l176.82,0Z" style="fill:url(#_Linear1);"/>
        <rect x="175.88" y="255.38" width="88.439" height="48.172" style="fill:#54428e;"/>
        <rect x="216.717" y="255.38" width="8.38" height="48.172" style="fill:#7fffd4;"/>
        <rect x="228.637" y="255.38" width="8.38" height="48.172" style="fill:#7fffd4;"/>
    </g>
    <g>
        <rect x="95.249" y="214.433" width="130.924" height="35.228" style="fill:#fbfbfb;"/>
        <path d="M101.814,207.208l0,48.172l146.08,0l0,-5.719l-138.502,0l0,-35.228l138.502,0l0,-7.225l-146.08,0Z" style="fill:#54428e;"/>
        <rect x="46.058" y="207.208" width="56.322" height="48.172" style="fill:url(#_Linear2);"/>
        <path d="M160.711,240.478l-7.899,-9.184l-7.9,9.184l0,-18.367l15.799,0l0,18.367Z" style="fill:#7fffd4;"/>
    </g>
    <g>
        <rect x="31.564" y="189.16" width="144.639" height="15.528" style="fill:#fbfbfb;"/>
        <path d="M169.638,185.975l0,21.233l-146.08,0l0,-2.52l138.502,0l0,-15.528l-138.502,0l0,-3.185l146.08,0Z" style="fill:url(#_Linear3);"/>
        <rect x="169.072" y="185.975" width="56.322" height="21.233" style="fill:#54428e;"/>
    </g>
    <g>
        <rect x="40.793" y="167.27" width="144.639" height="16.974" style="fill:#fbfbfb;"/>
        <path d="M178.866,164.742l0,21.233l-143.271,0l0,-2.52l138.502,0l0,-15.528l-138.502,0l0,-3.185l143.271,0Z" style="fill:url(#_Linear4);"/>
        <rect x="178.3" y="164.742" width="56.322" height="21.233" style="fill:#7fffd4;"/>
    </g>
    <g>
        <rect x="205.931" y="0" width="4.771" height="164.742" style="fill:#54428e;"/>
        <rect x="171.738" y="0" width="35.296" height="164.742" style="fill:#493a7c;"/>
        <rect x="173.428" y="6.337" width="28.25" height="151.243" style="fill:#fbfbfb;"/>
        <rect x="186.449" y="0" width="4.771" height="164.742" style="fill:#54428e;"/>
        <rect x="66.035" y="0" width="121.517" height="164.742" style="fill:url(#_Linear5);"/>
    </g>
    <g>
        <path d="M89.938,104.743l43.964,25.383l2.277,-3.945l-43.963,-25.383l-2.278,3.945Z" style="fill:#7fffd4;"/>
        <path d="M128.129,38.588l43.964,25.383l2.277,-3.945l-43.963,-25.383l-2.278,3.945Z" style="fill:#7fffd4;"/>
        <path d="M89.95,60.009l2.278,3.945l43.963,-25.384l-2.277,-3.944l-43.964,25.383Z" style="fill:#7fffd4;"/>
        <rect x="91.684" y="56.988" width="4.555" height="50.766" style="fill:#7fffd4;"/>
        <rect x="168.08" y="56.988" width="4.555" height="50.766" style="fill:#7fffd4;"/>
        <path d="M131.137,124.752l1.989,3.446l38.237,-22.077l-1.99,-3.445l-38.236,22.076Z" style="fill:#7fffd4;"/>
        <path d="M178.673,109.236c-2.635,4.583 -8.507,6.147 -13.09,3.513c-4.583,-2.635 -6.147,-8.507 -3.512,-13.09c2.634,-4.582 8.506,-6.147 13.089,-3.512c4.61,2.662 6.174,8.507 3.513,13.089" style="fill:#7fffd4;fill-rule:nonzero;"/>
        <path d="M102.221,65.083c-2.634,4.583 -8.507,6.147 -13.089,3.513c-4.583,-2.635 -6.147,-8.507 -3.513,-13.09c2.635,-4.582 8.507,-6.147 13.09,-3.512c4.582,2.662 6.147,8.507 3.512,13.089" style="fill:#7fffd4;fill-rule:nonzero;"/>
        <path d="M85.647,109.236c-2.635,-4.582 -1.071,-10.427 3.512,-13.089c4.583,-2.635 10.428,-1.07 13.09,3.512c2.634,4.583 1.07,10.428 -3.513,13.09c-4.61,2.634 -10.455,1.07 -13.089,-3.513" style="fill:#7fffd4;fill-rule:nonzero;"/>
        <path d="M162.098,65.083c-2.634,-4.582 -1.07,-10.427 3.513,-13.089c4.582,-2.635 10.427,-1.07 13.089,3.512c2.634,4.583 1.07,10.428 -3.512,13.09c-4.583,2.634 -10.456,1.07 -13.09,-3.513" style="fill:#7fffd4;fill-rule:nonzero;"/>
        <path d="M132.16,136.101c-5.297,0 -9.577,-4.281 -9.577,-9.577c0,-5.296 4.28,-9.577 9.577,-9.577c5.296,0 9.577,4.281 9.577,9.577c0,5.269 -4.281,9.577 -9.577,9.577" style="fill:#7fffd4;fill-rule:nonzero;"/>
        <path d="M132.16,47.795c-5.297,0 -9.577,-4.281 -9.577,-9.577c0,-5.296 4.28,-9.577 9.577,-9.577c5.296,0 9.577,4.281 9.577,9.577c0,5.296 -4.281,9.577 -9.577,9.577" style="fill:#7fffd4;fill-rule:nonzero;"/>
        <path d="M163.985,82.378c0,-4.217 -5.281,-8.213 -13.376,-10.691c1.868,-8.251 1.037,-14.816 -2.621,-16.918c-0.843,-0.493 -1.83,-0.726 -2.906,-0.726l0,2.893c0.596,0 1.076,0.117 1.479,0.337c1.764,1.012 2.53,4.865 1.933,9.821c-0.143,1.22 -0.376,2.504 -0.662,3.815c-2.543,-0.623 -5.319,-1.103 -8.238,-1.414c-1.752,-2.401 -3.568,-4.58 -5.397,-6.487c4.229,-3.931 8.199,-6.085 10.898,-6.085l0,-2.893c-3.568,0 -8.239,2.543 -12.961,6.954c-4.723,-4.385 -9.393,-6.902 -12.961,-6.902l0,2.893c2.685,0 6.668,2.14 10.898,6.046c-1.817,1.907 -3.633,4.073 -5.358,6.474c-2.933,0.311 -5.709,0.791 -8.252,1.427c-0.298,-1.298 -0.519,-2.556 -0.674,-3.763c-0.61,-4.956 0.142,-8.809 1.894,-9.834c0.389,-0.233 0.895,-0.337 1.492,-0.337l0,-2.893c-1.09,0 -2.076,0.233 -2.932,0.726c-3.646,2.102 -4.463,8.654 -2.582,16.879c-8.07,2.491 -13.324,6.474 -13.324,10.678c0,4.216 5.28,8.212 13.376,10.69c-1.869,8.252 -1.038,14.816 2.62,16.918c0.844,0.493 1.83,0.727 2.92,0.727c3.567,0 8.238,-2.543 12.961,-6.954c4.722,4.385 9.393,6.902 12.96,6.902c1.09,0 2.076,-0.234 2.933,-0.727c3.645,-2.101 4.463,-8.653 2.581,-16.879c8.044,-2.478 13.299,-6.474 13.299,-10.677Zm-16.892,-8.654c-0.48,1.674 -1.077,3.399 -1.752,5.125c-0.532,-1.038 -1.09,-2.076 -1.699,-3.114c-0.597,-1.038 -1.233,-2.05 -1.869,-3.036c1.843,0.273 3.62,0.61 5.32,1.025Zm-5.942,13.817c-1.012,1.752 -2.05,3.412 -3.127,4.956c-1.933,0.169 -3.892,0.26 -5.864,0.26c-1.959,0 -3.918,-0.091 -5.839,-0.247c-1.076,-1.544 -2.127,-3.191 -3.139,-4.93c-0.986,-1.699 -1.882,-3.425 -2.699,-5.163c0.804,-1.739 1.713,-3.477 2.686,-5.177c1.012,-1.751 2.05,-3.412 3.126,-4.956c1.934,-0.169 3.893,-0.259 5.865,-0.259c1.959,0 3.918,0.09 5.838,0.246c1.077,1.544 2.128,3.192 3.14,4.93c0.986,1.7 1.881,3.425 2.698,5.164c-0.817,1.738 -1.712,3.477 -2.685,5.176Zm4.19,-1.686c0.701,1.738 1.298,3.477 1.791,5.163c-1.7,0.415 -3.49,0.766 -5.346,1.038c0.636,-0.999 1.272,-2.024 1.869,-3.075c0.596,-1.037 1.154,-2.088 1.686,-3.126Zm-13.155,13.843c-1.207,-1.246 -2.414,-2.634 -3.607,-4.152c1.167,0.052 2.361,0.091 3.568,0.091c1.219,0 2.426,-0.026 3.606,-0.091c-1.167,1.518 -2.374,2.906 -3.567,4.152Zm-9.653,-7.642c-1.842,-0.272 -3.62,-0.61 -5.319,-1.025c0.48,-1.673 1.077,-3.399 1.751,-5.124c0.532,1.038 1.09,2.075 1.7,3.113c0.61,1.038 1.232,2.05 1.868,3.036Zm9.588,-26.998c1.206,1.245 2.413,2.633 3.606,4.151c-1.167,-0.052 -2.361,-0.091 -3.567,-0.091c-1.22,0 -2.426,0.026 -3.607,0.091c1.168,-1.518 2.374,-2.906 3.568,-4.151Zm-9.601,7.641c-0.636,0.999 -1.271,2.024 -1.868,3.075c-0.597,1.038 -1.155,2.076 -1.687,3.114c-0.7,-1.739 -1.297,-3.477 -1.79,-5.164c1.699,-0.402 3.49,-0.752 5.345,-1.025Zm-11.741,16.244c-4.593,-1.96 -7.564,-4.528 -7.564,-6.565c0,-2.037 2.971,-4.619 7.564,-6.565c1.115,-0.48 2.335,-0.908 3.593,-1.31c0.74,2.542 1.713,5.189 2.92,7.901c-1.194,2.698 -2.154,5.332 -2.881,7.862c-1.284,-0.402 -2.504,-0.843 -3.632,-1.323Zm6.98,18.539c-1.765,-1.012 -2.53,-4.865 -1.934,-9.821c0.143,-1.22 0.377,-2.504 0.662,-3.814c2.543,0.622 5.319,1.102 8.239,1.414c1.751,2.4 3.567,4.58 5.397,6.487c-4.23,3.931 -8.2,6.085 -10.898,6.085c-0.584,-0.013 -1.077,-0.13 -1.466,-0.351Zm30.774,-9.886c0.609,4.956 -0.143,8.809 -1.894,9.834c-0.39,0.234 -0.896,0.338 -1.492,0.338c-2.686,0 -6.669,-2.141 -10.899,-6.046c1.817,-1.907 3.633,-4.074 5.359,-6.474c2.932,-0.312 5.708,-0.792 8.251,-1.427c0.298,1.31 0.532,2.569 0.675,3.775Zm4.995,-8.653c-1.116,0.48 -2.336,0.908 -3.594,1.31c-0.74,-2.543 -1.713,-5.19 -2.919,-7.901c1.193,-2.699 2.153,-5.333 2.88,-7.862c1.284,0.402 2.504,0.843 3.646,1.323c4.592,1.959 7.563,4.528 7.563,6.565c-0.013,2.037 -2.984,4.618 -7.576,6.565Z" style="fill:#fbfbfb;fill-rule:nonzero;"/>
        <circle cx="132.147" cy="82.378" r="5.929" style="fill:#7fffd4;"/>
    </g>
    <path d="M35.595,185.975l0,-2.52l5.198,0l0,-15.528l-5.198,0l0,-3.185l30.44,0l0,-164.742l144.667,0l0,3.646l-3.668,3.991l0,4.619l-5.357,5.83l0,-4.619l-10.457,11.381l0,3.89l-3.667,3.992l0,8.473l-121.518,123.539l69.516,0l-3.184,3.185l7.941,0l-15.527,15.528l-4.735,0l-2.521,2.52l89.139,0l-21.233,21.233l34.004,0l-7.225,7.225l-7.222,0l-35.228,35.228l61.708,0l-5.719,5.719l22.145,0l-48.172,48.172l-199.722,0l0,-8.429l9.653,0l0,-31.565l-9.653,0l0,-8.178l46.447,0l0.99,-48.172l-23.879,0l0,-2.52l8.006,0l0,-15.528l-8.006,0l12.037,-3.185Z" style="fill:#2e244e;fill-opacity:0.14902;"/>
    <defs>
        <linearGradient id="_Linear1" x1="0" y1="0" x2="1" y2="0" gradientUnits="userSpaceOnUse" gradientTransform="matrix(181.963,0,0,48.1717,0,279.466)"><stop offset="0" style="stop-color:#27165d;stop-opacity:1"/><stop offset="1" style="stop-color:#493a7c;stop-opacity:1"/></linearGradient>
        <linearGradient id="_Linear2" x1="0" y1="0" x2="1" y2="0" gradientUnits="userSpaceOnUse" gradientTransform="matrix(55.7568,0,0,55.7568,46.0576,231.294)"><stop offset="0" style="stop-color:#27165d;stop-opacity:1"/><stop offset="1" style="stop-color:#493a7c;stop-opacity:1"/></linearGradient>
        <linearGradient id="_Linear3" x1="0" y1="0" x2="1" y2="0" gradientUnits="userSpaceOnUse" gradientTransform="matrix(146.079,0,0,21.233,23.5582,196.592)"><stop offset="0" style="stop-color:#27165d;stop-opacity:1"/><stop offset="1" style="stop-color:#493a7c;stop-opacity:1"/></linearGradient>
        <linearGradient id="_Linear4" x1="0" y1="0" x2="1" y2="0" gradientUnits="userSpaceOnUse" gradientTransform="matrix(146.079,0,0,21.233,32.7867,175.359)"><stop offset="0" style="stop-color:#00db91;stop-opacity:1"/><stop offset="0.65" style="stop-color:#07e097;stop-opacity:1"/><stop offset="0.84" style="stop-color:#1aeea6;stop-opacity:1"/><stop offset="1" style="stop-color:#30ffb9;stop-opacity:1"/></linearGradient>
        <linearGradient id="_Linear5" x1="0" y1="0" x2="1" y2="0" gradientUnits="userSpaceOnUse" gradientTransform="matrix(121.517,0,0,164.742,66.0353,82.3712)"><stop offset="0" style="stop-color:#27165d;stop-opacity:1"/><stop offset="1" style="stop-color:#493a7c;stop-opacity:1"/></linearGradient>
    </defs>
</svg>
